<svg xmlns="http://www.w3.org/2000/svg" viewBox="0 0 32 32" fill="none">
  <!-- Fondo -->
  <rect width="32" height="32" rx="7" fill="#060610"/>
  <!-- QR esquina superior izquierda -->
  <rect x="4"  y="4"  width="10" height="10" rx="2" fill="#8b5cf6"/>
  <rect x="6"  y="6"  width="6"  height="6"  rx="1" fill="#060610"/>
  <rect x="7.5" y="7.5" width="3" height="3" rx=".5" fill="#8b5cf6"/>
  <!-- QR esquina superior derecha -->
  <rect x="18" y="4"  width="10" height="10" rx="2" fill="#22d3ee"/>
  <rect x="20" y="6"  width="6"  height="6"  rx="1" fill="#060610"/>
  <rect x="21.5" y="7.5" width="3" height="3" rx=".5" fill="#22d3ee"/>
  <!-- QR esquina inferior izquierda -->
  <rect x="4"  y="18" width="10" height="10" rx="2" fill="#22d3ee"/>
  <rect x="6"  y="20" width="6"  height="6"  rx="1" fill="#060610"/>
  <rect x="7.5" y="21.5" width="3" height="3" rx=".5" fill="#22d3ee"/>
  <!-- Módulos data centro -->
  <rect x="18" y="18" width="3" height="3" rx=".5" fill="#8b5cf6"/>
  <rect x="22" y="18" width="3" height="3" rx=".5" fill="#8b5cf6"/>
  <rect x="26" y="18" width="3" height="3" rx=".5" fill="#22d3ee"/>
  <rect x="18" y="22" width="3" height="3" rx=".5" fill="#22d3ee"/>
  <rect x="22" y="22" width="3" height="3" rx=".5" fill="#8b5cf6"/>
  <rect x="18" y="26" width="3" height="3" rx=".5" fill="#8b5cf6"/>
  <rect x="26" y="26" width="3" height="3" rx=".5" fill="#8b5cf6"/>
</svg>
